<svg width="50" height="36" viewBox="0 0 50 36" xmlns="http://www.w3.org/2000/svg"><path fill="#ffffff" d="M 46.765 3.312 C 45.756 2.431 44.477 1.876 43.118 1.731 C 40.11 1.41 37.076 1.247 34.032 1.165 C 31.009 1.085 27.97 1.085 24.942 1.086 C 21.908 1.088 18.872 1.085 15.846 1.165 C 12.802 1.246 9.768 1.41 6.759 1.731 C 5.399 1.876 4.123 2.431 3.114 3.312 C 2.093 4.201 1.383 5.37 1.076 6.66 C 0.646 8.442 0.428 10.299 0.32 12.171 C 0.21 14.05 0.206 15.903 0.206 17.705 C 0.206 19.507 0.206 21.355 0.315 23.234 C 0.423 25.105 0.636 26.964 1.067 28.745 C 1.375 30.034 2.085 31.203 3.108 32.095 C 4.117 32.974 5.39 33.527 6.749 33.675 C 9.759 33.997 12.793 34.159 15.837 34.24 C 18.864 34.322 21.899 34.322 24.932 34.32 C 27.961 34.318 31.001 34.321 34.024 34.24 C 37.068 34.161 40.102 33.997 43.111 33.675 C 44.47 33.531 45.745 32.974 46.754 32.095 C 47.776 31.203 48.49 30.036 48.799 28.749 C 49.225 26.965 49.442 25.106 49.551 23.236 C 49.654 21.391 49.656 19.521 49.656 17.706 L 49.66 17.706 L 49.66 17.617 L 49.656 17.617 C 49.656 14.005 49.656 10.185 48.81 6.66 C 48.502 5.37 47.788 4.201 46.765 3.312 Z M 18.161 24.879 L 18.161 8.76 L 18.932 9.144 C 21.26 10.305 23.584 11.464 25.903 12.621 C 28.698 14.016 31.505 15.414 34.316 16.814 L 35.209 17.261 L 34.313 17.705 L 26.623 21.516 C 24.061 22.784 21.496 24.055 18.929 25.324 L 18.161 25.705 L 18.161 24.879 Z"/></svg>